<svg xmlns="http://www.w3.org/2000/svg" width="11" height="12"><style/><g id="1"><g id="меню"><path id="Р" d="M5.08 11.98V6.97h2.55c.5 0 .96-.11 1.37-.34.42-.22.77-.52 1.06-.89.3-.37.52-.79.69-1.27.16-.48.24-.97.24-1.48 0-.48-.09.04-.26-.44-.17-.47-.41-.9-.71-1.28A3.81 3.81 0 008.93.36C8.51.13 8.05.02 7.56.02H2.99v11.96h2.09zm0-9.92h2.34c.18 0 .36.04.54.12.18.09.33.21.46.38s.24-.62.32-.38c.08.24.12.51.12.81 0 .6-.13 1.07-.38 1.42-.26.35-.58.52-.97.52H5.08V2.06zM1 5h4v2H1V5zm0 3h8v2H1V8z" fill="#33c7fd"/></g></g></svg>