<svg xmlns="http://www.w3.org/2000/svg" width="200" height="113"><style/><g id="Иконки"><g id="Строка 1"><path id="vk" d="M95.91 109.95h11.45s3.45-.38 5.22-2.29c1.63-1.74 1.58-5.03 1.58-5.03s-.23-15.36 6.9-17.62c7.03-2.23 16.06 14.85 25.63 21.41 7.23 4.97 12.73 3.89 12.73 3.89l25.59-.36s13.38-.83 7.04-11.35c-.52-.86-3.7-7.78-19.03-22.01-16.04-14.88-13.89-12.48 5.43-38.23C190.22 22.67 194.93 13.1 193.46 9c-1.4-3.91-10.06-2.88-10.06-2.88l-28.81.18s-2.14-.29-3.72.66c-1.55.93-2.54 3.09-2.54 3.09s-4.56 12.14-10.64 22.46c-12.83 21.78-17.96 22.93-20.05 21.58-4.88-3.16-3.66-12.66-3.66-19.42 0-21.11 3.2-29.91-6.24-32.19-3.13-.75-5.44-1.25-13.44-1.33-10.28-.11-18.98.03-23.91 2.44-3.27 1.61-5.8 5.18-4.26 5.39 1.9.25 6.21 1.16 8.5 4.27 2.95 4.02 2.85 13.03 2.85 13.03s1.69 24.85-3.96 27.94c-3.89 2.11-9.21-2.21-20.65-21.97-5.86-10.12-10.28-21.31-10.28-21.31s-.86-2.09-2.38-3.21c-1.84-1.35-4.42-1.78-4.42-1.78l-27.38.17s-4.11.12-5.62 1.91c-1.34 1.59-.1 4.87-.1 4.87s21.43 50.14 45.69 75.4c22.26 23.17 47.53 21.65 47.53 21.65z" fill="#fff"/></g></g></svg>