<svg xmlns="http://www.w3.org/2000/svg" width="152" height="152"><style/><g id="Иконки"><g id="Строка 1"><path id="instagram" d="M76.11 15.27c19.89 0 22.24.08 30.1.44 7.26.33 11.2 1.54 13.83 2.56 3.47 1.35 5.96 2.96 8.56 5.57 2.61 2.61 4.22 5.09 5.57 8.56 1.02 2.63 2.24 6.57 2.57 13.83.36 7.86.43 10.21.43 30.1 0 19.88-.07 22.24-.43 30.09-.33 7.26-1.55 11.2-2.57 13.83-1.35 3.47-2.96 5.95-5.57 8.56-2.6 2.61-5.09 4.22-8.56 5.57-2.63 1.02-6.57 2.23-13.83 2.57-7.86.35-10.21.43-30.1.43s-22.24-.08-30.1-.43c-7.26-.34-11.2-1.55-13.83-2.57-3.47-1.35-5.96-2.96-8.56-5.57-2.61-2.61-4.22-5.09-5.57-8.56-1.02-2.63-2.24-6.57-2.57-13.83-.36-7.85-.43-10.21-.43-30.09 0-19.89.07-22.24.43-30.1.33-7.26 1.55-11.2 2.57-13.83 1.35-3.47 2.96-5.95 5.57-8.56 2.6-2.61 5.09-4.22 8.56-5.57 2.63-1.02 6.57-2.23 13.83-2.56 7.86-.36 10.21-.44 30.1-.44m0-13.42c-20.23 0-22.76.09-30.71.45-7.93.36-13.34 1.62-18.08 3.46-4.9 1.91-9.05 4.45-13.19 8.59-4.14 4.14-6.69 8.3-8.59 13.19-1.84 4.74-3.1 10.15-3.46 18.08-.37 7.94-.45 10.48-.45 30.71 0 20.22.08 22.76.45 30.7.36 7.93 1.62 13.34 3.46 18.08 1.9 4.9 4.45 9.05 8.59 13.19 4.14 4.14 8.29 6.69 13.19 8.59 4.74 1.84 10.15 3.1 18.08 3.46 7.95.36 10.48.45 30.71.45s22.76-.09 30.71-.45c7.93-.36 13.34-1.62 18.08-3.46 4.9-1.9 9.05-4.45 13.19-8.59 4.14-4.14 6.69-8.29 8.59-13.19 1.84-4.74 3.1-10.15 3.46-18.08.37-7.94.45-10.48.45-30.7 0-20.23-.08-22.77-.45-30.71-.36-7.93-1.62-13.34-3.46-18.08-1.9-4.89-4.45-9.05-8.59-13.19-4.14-4.14-8.29-6.68-13.19-8.59-4.74-1.84-10.15-3.1-18.08-3.46-7.95-.36-10.48-.45-30.71-.45zm0 36.23c-21.12 0-38.25 17.12-38.25 38.25 0 21.12 17.13 38.24 38.25 38.24s38.25-17.12 38.25-38.24c0-21.13-17.13-38.25-38.25-38.25zm0 63.07c-13.71 0-24.83-11.11-24.83-24.82S62.4 51.5 76.11 51.5c13.71 0 24.83 11.12 24.83 24.83 0 13.71-11.12 24.82-24.83 24.82zm48.7-64.58c0 4.94-4.01 8.94-8.94 8.94-4.94 0-8.94-4-8.94-8.94 0-4.93 4-8.93 8.94-8.93 4.93 0 8.94 4 8.94 8.93z" fill="#fff"/></g></g></svg>