<svg xmlns="http://www.w3.org/2000/svg" width="102" height="169"><style/><g id="Иконки"><g id="Строка 3"><path id="ok" d="M51.27 86.27c23.42 0 42.47-19.04 42.47-42.45 0-23.42-19.05-42.47-42.47-42.47C27.85 1.35 8.8 20.4 8.8 43.82c0 23.41 19.05 42.45 42.47 42.45zm0-60.04c9.7 0 17.58 7.89 17.58 17.59 0 9.68-7.88 17.57-17.58 17.57-9.69 0-17.59-7.89-17.59-17.57 0-9.7 7.9-17.59 17.59-17.59zm17.18 94.68a79.383 79.383 0 0024.66-10.22c5.81-3.66 7.56-11.34 3.9-17.15-3.66-5.82-11.33-7.57-17.16-3.91-17.39 10.94-39.79 10.93-57.17 0-5.83-3.66-13.5-1.91-17.16 3.91s-1.91 13.49 3.9 17.15a79.723 79.723 0 0024.66 10.22l-23.74 23.74c-4.86 4.85-4.86 12.73 0 17.59a12.41 12.41 0 008.8 3.64c3.18 0 6.37-1.21 8.8-3.64l23.32-23.33 23.34 23.33c4.86 4.86 12.73 4.86 17.59 0 4.87-4.86 4.87-12.74 0-17.59l-23.74-23.74z" fill="#fff"/></g></g></svg>