<svg xmlns="http://www.w3.org/2000/svg" width="139" height="167"><style/><g id="Иконки"><g id="Строка 2"><path id="youtube" d="M114.93 109.24c-2.75 0-4.12 2.1-4.12 6.31v4.2h8.23v-4.2c0-4.21-1.38-6.31-4.11-6.31zm20.15-23.1c-1.67-7.25-7.6-12.6-14.74-13.39-16.9-1.89-34-1.9-51.03-1.89-17.04-.01-34.14 0-51.04 1.89-7.14.79-13.07 6.14-14.73 13.39-2.38 10.32-2.4 21.58-2.4 32.21 0 10.63 0 21.9 2.37 32.22 1.66 7.25 7.59 12.59 14.73 13.39 16.9 1.88 34.01 1.89 51.04 1.88 17.03.01 34.14 0 51.03-1.88 7.14-.8 13.07-6.14 14.74-13.39 2.37-10.32 2.39-21.59 2.39-32.22 0-10.63.01-21.89-2.36-32.21zm-95.07 9.28h-9.86v52.41h-9.17V95.42H11.3v-8.58h28.71v8.58zm24.89 52.41h-8.24v-4.95c-3.28 3.75-6.39 5.58-9.41 5.58-2.66 0-4.49-1.08-5.31-3.38-.45-1.37-.73-3.55-.73-6.76v-35.94h8.24v33.47c0 1.93 0 2.93.07 3.2.2 1.28.83 1.93 1.93 1.93 1.65 0 3.38-1.28 5.21-3.86v-34.74h8.24v45.45zm31.29-13.64c0 4.21-.28 7.24-.83 9.16-1.1 3.38-3.3 5.11-6.58 5.11-2.93 0-5.77-1.63-8.52-5.03v4.4h-8.23V86.84h8.23v19.92c2.66-3.28 5.49-4.93 8.52-4.93 3.28 0 5.48 1.72 6.58 5.13.55 1.83.83 4.83.83 9.14v18.09zm31.09-7.58h-16.47v8.06c0 4.2 1.37 6.31 4.2 6.31 2.03 0 3.21-1.11 3.68-3.31.08-.45.18-2.28.18-5.58h8.41v1.2c0 2.66-.1 4.49-.18 5.31-.27 1.83-.92 3.48-1.92 4.93-2.28 3.3-5.66 4.93-9.96 4.93-4.31 0-7.59-1.55-9.97-4.65-1.75-2.28-2.65-5.86-2.65-10.69V117.2c0-4.86.8-8.41 2.55-10.71 2.38-3.11 5.66-4.66 9.86-4.66 4.13 0 7.41 1.55 9.72 4.66 1.72 2.3 2.55 5.85 2.55 10.71v9.41zm-42.91-17.37c-1.36 0-2.73.65-4.11 2v27.71c1.38 1.38 2.75 2.03 4.11 2.03 2.38 0 3.58-2.03 3.58-6.14v-19.39c0-4.11-1.2-6.21-3.58-6.21zM55.02 1h-9.33L39.4 25.2 32.85 1h-9.71c1.94 5.71 3.97 11.46 5.92 17.17 2.96 8.59 4.8 15.07 5.63 19.49v24.95h9.23V37.66L55.02 1zm24.66 46.75V31.67c0-4.91-.84-8.5-2.58-10.82-2.31-3.13-5.54-4.7-9.71-4.7-4.14 0-7.39 1.57-9.69 4.7-1.77 2.32-2.6 5.91-2.6 10.82v16.08c0 4.88.83 8.5 2.6 10.8 2.3 3.13 5.55 4.7 9.69 4.7 4.17 0 7.4-1.57 9.71-4.7 1.74-2.3 2.58-5.92 2.58-10.8zm-8.32 1.56c0 4.25-1.29 6.38-3.97 6.38s-3.97-2.13-3.97-6.38V30c0-4.25 1.29-6.36 3.97-6.36s3.97 2.11 3.97 6.36v19.31zm39.09 13.3V16.7h-8.32v35.09c-1.85 2.61-3.59 3.9-5.26 3.9-1.11 0-1.76-.66-1.95-1.95-.1-.27-.1-1.28-.1-3.24V16.7h-8.29v36.31c0 3.24.28 5.43.73 6.82.83 2.33 2.68 3.42 5.36 3.42 3.04 0 6.2-1.85 9.51-5.65v5.01h8.32z" fill="#fff"/></g></g></svg>