<svg xmlns="http://www.w3.org/2000/svg" viewBox="0 0 11 12" width="11" height="12">
	<style>
		tspan { white-space:pre }
		.shp0 { fill: #33c7fd } 
	</style>
	<g id="1">
		<g id="меню">
			<path id="Р" class="shp0" d="M5.08 11.98L5.08 6.97L7.63 6.97C8.13 6.97 8.59 6.86 9 6.63C9.42 6.41 9.77 6.11 10.06 5.74C10.36 5.37 10.58 4.95 10.75 4.47C10.91 3.99 10.99 3.5 10.99 2.99C10.99 2.51 10.9 3.03 10.73 2.55C10.56 2.08 10.32 1.65 10.02 1.27C9.71 0.9 9.35 0.59 8.93 0.36C8.51 0.13 8.05 0.02 7.56 0.02L2.99 0.02L2.99 11.98L5.08 11.98ZM5.08 2.06L7.42 2.06C7.6 2.06 7.78 2.1 7.96 2.18C8.14 2.27 8.29 2.39 8.42 2.56C8.55 2.73 8.66 1.94 8.74 2.18C8.82 2.42 8.86 2.69 8.86 2.99C8.86 3.59 8.73 4.06 8.48 4.41C8.22 4.76 7.9 4.93 7.51 4.93L5.08 4.93L5.08 2.06ZM1 5L5 5L5 7L1 7L1 5ZM1 8L9 8L9 10L1 10L1 8Z" />
		</g>
	</g>
</svg>