<svg xmlns="http://www.w3.org/2000/svg" viewBox="0 0 102 169" width="102" height="169">
	<style>
		tspan { white-space:pre }
		.shp0 { fill: #ffffff } 
	</style>
	<g id="Иконки">
		<g id="Строка 3">
			<path id="ok" class="shp0" d="M51.27 86.27C74.69 86.27 93.74 67.23 93.74 43.82C93.74 20.4 74.69 1.35 51.27 1.35C27.85 1.35 8.8 20.4 8.8 43.82C8.8 67.23 27.85 86.27 51.27 86.27ZM51.27 26.23C60.97 26.23 68.85 34.12 68.85 43.82C68.85 53.5 60.97 61.39 51.27 61.39C41.58 61.39 33.68 53.5 33.68 43.82C33.68 34.12 41.58 26.23 51.27 26.23ZM68.45 120.91C77.1 118.94 85.43 115.52 93.11 110.69C98.92 107.03 100.67 99.35 97.01 93.54C93.35 87.72 85.68 85.97 79.85 89.63C62.46 100.57 40.06 100.56 22.68 89.63C16.85 85.97 9.18 87.72 5.52 93.54C1.86 99.36 3.61 107.03 9.42 110.69C17.1 115.51 25.44 118.94 34.08 120.91L10.34 144.65C5.48 149.5 5.48 157.38 10.34 162.24C12.77 164.67 15.96 165.88 19.14 165.88C22.32 165.88 25.51 164.67 27.94 162.24L51.26 138.91L74.6 162.24C79.46 167.1 87.33 167.1 92.19 162.24C97.06 157.38 97.06 149.5 92.19 144.65L68.45 120.91Z" />
		</g>
	</g>
</svg>