<svg xmlns="http://www.w3.org/2000/svg" viewBox="0 0 200 113" width="200" height="113">
	<style>
		tspan { white-space:pre }
		.shp0 { fill: #ffffff } 
	</style>
	<g id="Иконки">
		<g id="Строка 1">
			<path id="vk" class="shp0" d="M95.91 109.95L107.36 109.95C107.36 109.95 110.81 109.57 112.58 107.66C114.21 105.92 114.16 102.63 114.16 102.63C114.16 102.63 113.93 87.27 121.06 85.01C128.09 82.78 137.12 99.86 146.69 106.42C153.92 111.39 159.42 110.31 159.42 110.31L185.01 109.95C185.01 109.95 198.39 109.12 192.05 98.6C191.53 97.74 188.35 90.82 173.02 76.59C156.98 61.71 159.13 64.11 178.45 38.36C190.22 22.67 194.93 13.1 193.46 9C192.06 5.09 183.4 6.12 183.4 6.12L154.59 6.3C154.59 6.3 152.45 6.01 150.87 6.96C149.32 7.89 148.33 10.05 148.33 10.05C148.33 10.05 143.77 22.19 137.69 32.51C124.86 54.29 119.73 55.44 117.64 54.09C112.76 50.93 113.98 41.43 113.98 34.67C113.98 13.56 117.18 4.76 107.74 2.48C104.61 1.73 102.3 1.23 94.3 1.15C84.02 1.04 75.32 1.18 70.39 3.59C67.12 5.2 64.59 8.77 66.13 8.98C68.03 9.23 72.34 10.14 74.63 13.25C77.58 17.27 77.48 26.28 77.48 26.28C77.48 26.28 79.17 51.13 73.52 54.22C69.63 56.33 64.31 52.01 52.87 32.25C47.01 22.13 42.59 10.94 42.59 10.94C42.59 10.94 41.73 8.85 40.21 7.73C38.37 6.38 35.79 5.95 35.79 5.95L8.41 6.12C8.41 6.12 4.3 6.24 2.79 8.03C1.45 9.62 2.69 12.9 2.69 12.9C2.69 12.9 24.12 63.04 48.38 88.3C70.64 111.47 95.91 109.95 95.91 109.95L95.91 109.95L95.91 109.95Z" />
		</g>
	</g>
</svg>