<svg xmlns="http://www.w3.org/2000/svg" viewBox="0 0 152 152" width="152" height="152">
	<style>
		tspan { white-space:pre }
		.shp0 { fill: #ffffff } 
	</style>
	<g id="Иконки">
		<g id="Строка 1">
			<path id="instagram" class="shp0" d="M76.11 15.27C96 15.27 98.35 15.35 106.21 15.71C113.47 16.04 117.41 17.25 120.04 18.27C123.51 19.62 126 21.23 128.6 23.84C131.21 26.45 132.82 28.93 134.17 32.4C135.19 35.03 136.41 38.97 136.74 46.23C137.1 54.09 137.17 56.44 137.17 76.33C137.17 96.21 137.1 98.57 136.74 106.42C136.41 113.68 135.19 117.62 134.17 120.25C132.82 123.72 131.21 126.2 128.6 128.81C126 131.42 123.51 133.03 120.04 134.38C117.41 135.4 113.47 136.61 106.21 136.95C98.35 137.3 96 137.38 76.11 137.38C56.22 137.38 53.87 137.3 46.01 136.95C38.75 136.61 34.81 135.4 32.18 134.38C28.71 133.03 26.22 131.42 23.62 128.81C21.01 126.2 19.4 123.72 18.05 120.25C17.03 117.62 15.81 113.68 15.48 106.42C15.12 98.57 15.05 96.21 15.05 76.33C15.05 56.44 15.12 54.09 15.48 46.23C15.81 38.97 17.03 35.03 18.05 32.4C19.4 28.93 21.01 26.45 23.62 23.84C26.22 21.23 28.71 19.62 32.18 18.27C34.81 17.25 38.75 16.04 46.01 15.71C53.87 15.35 56.22 15.27 76.11 15.27M76.11 1.85C55.88 1.85 53.35 1.94 45.4 2.3C37.47 2.66 32.06 3.92 27.32 5.76C22.42 7.67 18.27 10.21 14.13 14.35C9.99 18.49 7.44 22.65 5.54 27.54C3.7 32.28 2.44 37.69 2.08 45.62C1.71 53.56 1.63 56.1 1.63 76.33C1.63 96.55 1.71 99.09 2.08 107.03C2.44 114.96 3.7 120.37 5.54 125.11C7.44 130.01 9.99 134.16 14.13 138.3C18.27 142.44 22.42 144.99 27.32 146.89C32.06 148.73 37.47 149.99 45.4 150.35C53.35 150.71 55.88 150.8 76.11 150.8C96.34 150.8 98.87 150.71 106.82 150.35C114.75 149.99 120.16 148.73 124.9 146.89C129.8 144.99 133.95 142.44 138.09 138.3C142.23 134.16 144.78 130.01 146.68 125.11C148.52 120.37 149.78 114.96 150.14 107.03C150.51 99.09 150.59 96.55 150.59 76.33C150.59 56.1 150.51 53.56 150.14 45.62C149.78 37.69 148.52 32.28 146.68 27.54C144.78 22.65 142.23 18.49 138.09 14.35C133.95 10.21 129.8 7.67 124.9 5.76C120.16 3.92 114.75 2.66 106.82 2.3C98.87 1.94 96.34 1.85 76.11 1.85L76.11 1.85ZM76.11 38.08C54.99 38.08 37.86 55.2 37.86 76.33C37.86 97.45 54.99 114.57 76.11 114.57C97.23 114.57 114.36 97.45 114.36 76.33C114.36 55.2 97.23 38.08 76.11 38.08ZM76.11 101.15C62.4 101.15 51.28 90.04 51.28 76.33C51.28 62.62 62.4 51.5 76.11 51.5C89.82 51.5 100.94 62.62 100.94 76.33C100.94 90.04 89.82 101.15 76.11 101.15ZM124.81 36.57C124.81 41.51 120.8 45.51 115.87 45.51C110.93 45.51 106.93 41.51 106.93 36.57C106.93 31.64 110.93 27.64 115.87 27.64C120.8 27.64 124.81 31.64 124.81 36.57Z" />
		</g>
	</g>
</svg>