<svg xmlns="http://www.w3.org/2000/svg" viewBox="0 0 139 167" width="139" height="167">
	<style>
		tspan { white-space:pre }
		.shp0 { fill: #ffffff } 
	</style>
	<g id="Иконки">
		<g id="Строка 2">
			<path id="youtube" class="shp0" d="M114.93 109.24C112.18 109.24 110.81 111.34 110.81 115.55L110.81 119.75L119.04 119.75L119.04 115.55C119.04 111.34 117.66 109.24 114.93 109.24ZM135.08 86.14C133.41 78.89 127.48 73.54 120.34 72.75C103.44 70.86 86.34 70.85 69.31 70.86C52.27 70.85 35.17 70.86 18.27 72.75C11.13 73.54 5.2 78.89 3.54 86.14C1.16 96.46 1.14 107.72 1.14 118.35C1.14 128.98 1.14 140.25 3.51 150.57C5.17 157.82 11.1 163.16 18.24 163.96C35.14 165.84 52.25 165.85 69.28 165.84C86.31 165.85 103.42 165.84 120.31 163.96C127.45 163.16 133.38 157.82 135.05 150.57C137.42 140.25 137.44 128.98 137.44 118.35C137.44 107.72 137.45 96.46 135.08 86.14ZM40.01 95.42L30.15 95.42L30.15 147.83L20.98 147.83L20.98 95.42L11.3 95.42L11.3 86.84L40.01 86.84L40.01 95.42ZM64.9 147.83L56.66 147.83L56.66 142.88C53.38 146.63 50.27 148.46 47.25 148.46C44.59 148.46 42.76 147.38 41.94 145.08C41.49 143.71 41.21 141.53 41.21 138.32L41.21 102.38L49.45 102.38L49.45 135.85C49.45 137.78 49.45 138.78 49.52 139.05C49.72 140.33 50.35 140.98 51.45 140.98C53.1 140.98 54.83 139.7 56.66 137.12L56.66 102.38L64.9 102.38L64.9 147.83ZM96.19 134.19C96.19 138.4 95.91 141.43 95.36 143.35C94.26 146.73 92.06 148.46 88.78 148.46C85.85 148.46 83.01 146.83 80.26 143.43L80.26 147.83L72.03 147.83L72.03 86.84L80.26 86.84L80.26 106.76C82.92 103.48 85.75 101.83 88.78 101.83C92.06 101.83 94.26 103.55 95.36 106.96C95.91 108.79 96.19 111.79 96.19 116.1L96.19 134.19ZM127.28 126.61L110.81 126.61L110.81 134.67C110.81 138.87 112.18 140.98 115.01 140.98C117.04 140.98 118.22 139.87 118.69 137.67C118.77 137.22 118.87 135.39 118.87 132.09L127.28 132.09L127.28 133.29C127.28 135.95 127.18 137.78 127.1 138.6C126.83 140.43 126.18 142.08 125.18 143.53C122.9 146.83 119.52 148.46 115.22 148.46C110.91 148.46 107.63 146.91 105.25 143.81C103.5 141.53 102.6 137.95 102.6 133.12L102.6 117.2C102.6 112.34 103.4 108.79 105.15 106.49C107.53 103.38 110.81 101.83 115.01 101.83C119.14 101.83 122.42 103.38 124.73 106.49C126.45 108.79 127.28 112.34 127.28 117.2L127.28 126.61ZM84.37 109.24C83.01 109.24 81.64 109.89 80.26 111.24L80.26 138.95C81.64 140.33 83.01 140.98 84.37 140.98C86.75 140.98 87.95 138.95 87.95 134.84L87.95 115.45C87.95 111.34 86.75 109.24 84.37 109.24ZM55.02 1L45.69 1L39.4 25.2L32.85 1L23.14 1C25.08 6.71 27.11 12.46 29.06 18.17C32.02 26.76 33.86 33.24 34.69 37.66L34.69 62.61L43.92 62.61L43.92 37.66L55.02 1ZM79.68 47.75L79.68 31.67C79.68 26.76 78.84 23.17 77.1 20.85C74.79 17.72 71.56 16.15 67.39 16.15C63.25 16.15 60 17.72 57.7 20.85C55.93 23.17 55.1 26.76 55.1 31.67L55.1 47.75C55.1 52.63 55.93 56.25 57.7 58.55C60 61.68 63.25 63.25 67.39 63.25C71.56 63.25 74.79 61.68 77.1 58.55C78.84 56.25 79.68 52.63 79.68 47.75ZM71.36 49.31C71.36 53.56 70.07 55.69 67.39 55.69C64.71 55.69 63.42 53.56 63.42 49.31L63.42 30C63.42 25.75 64.71 23.64 67.39 23.64C70.07 23.64 71.36 25.75 71.36 30L71.36 49.31ZM110.45 62.61L110.45 16.7L102.13 16.7L102.13 51.79C100.28 54.4 98.54 55.69 96.87 55.69C95.76 55.69 95.11 55.03 94.92 53.74C94.82 53.47 94.82 52.46 94.82 50.5L94.82 16.7L86.53 16.7L86.53 53.01C86.53 56.25 86.81 58.44 87.26 59.83C88.09 62.16 89.94 63.25 92.62 63.25C95.66 63.25 98.82 61.4 102.13 57.6L102.13 62.61L110.45 62.61Z" />
		</g>
	</g>
</svg>